<svg xmlns="http://www.w3.org/2000/svg" xmlns:xlink="http://www.w3.org/1999/xlink" xmlns:lucid="lucid" width="1244.31" height="984.14"><g transform="translate(0 0)" lucid:page-tab-id="BGlUEyPy_dF3"><path d="M983.07 833a1.1 1.1 0 0 1 1.1-1.1h167.87a1.1 1.1 0 0 1 1.1 1.1v40.3a1.1 1.1 0 0 1-1.1 1.1H984.18a1.1 1.1 0 0 1-1.1-1.1z" fill="#fff" fill-opacity="0"/><path d="M983.07 872.2a2.22 2.22 0 0 0 2.22 2.2h165.63a2.22 2.22 0 0 0 2.22-2.2v-38.1a2.22 2.22 0 0 0-2.22-2.2H985.3a2.22 2.22 0 0 0-2.23 2.2z" stroke="#000" stroke-width="2.22" fill="#fff2cc"/><path d="M983.07 873.3a1.1 1.1 0 0 0 1.1 1.1h167.87a1.1 1.1 0 0 0 1.1-1.1V833a1.1 1.1 0 0 0-1.1-1.1H984.18a1.1 1.1 0 0 0-1.1 1.1z" stroke="#000" stroke-width="2.22" fill="#fff2cc"/><path d="M983.07 874.4v-40.3a2.22 2.22 0 0 1 2.22-2.2h165.63a2.22 2.22 0 0 1 2.22 2.2v40.3" fill="none"/><use xlink:href="#a" transform="matrix(1,0,0,1,991.9151079999998,840.77668) translate(42.407197265624994 21.622233886718753)"/><path d="M983.07 896.78a1.1 1.1 0 0 1 1.1-1.1h167.87a1.1 1.1 0 0 1 1.1 1.1v40.3a1.1 1.1 0 0 1-1.1 1.1H984.18a1.1 1.1 0 0 1-1.1-1.1z" fill="#fff" fill-opacity="0"/><path d="M983.07 935.97a2.22 2.22 0 0 0 2.22 2.22h165.63a2.22 2.22 0 0 0 2.22-2.23V897.9a2.22 2.22 0 0 0-2.22-2.23H985.3a2.22 2.22 0 0 0-2.23 2.22z" stroke="#000" stroke-width="2.22" fill="#dbeef3"/><path d="M983.07 937.08a1.1 1.1 0 0 0 1.1 1.1h167.87a1.1 1.1 0 0 0 1.1-1.1v-40.3a1.1 1.1 0 0 0-1.1-1.1H984.18a1.1 1.1 0 0 0-1.1 1.1z" stroke="#000" stroke-width="2.22" fill="#dbeef3"/><path d="M983.07 938.2v-40.3a2.22 2.22 0 0 1 2.22-2.23h165.63a2.22 2.22 0 0 1 2.22 2.22v40.3" fill="none"/><use xlink:href="#b" transform="matrix(1,0,0,1,991.9151079999998,904.55568) translate(19.416042480468747 21.622233886718753)"/><path d="M983.07 769.22a1.1 1.1 0 0 1 1.1-1.1h167.87a1.1 1.1 0 0 1 1.1 1.1v40.3a1.1 1.1 0 0 1-1.1 1.1H984.18a1.1 1.1 0 0 1-1.1-1.1z" fill="#fff" fill-opacity="0"/><path d="M983.07 808.4a2.22 2.22 0 0 0 2.22 2.23h165.63a2.22 2.22 0 0 0 2.22-2.22v-38.07a2.22 2.22 0 0 0-2.22-2.22H985.3a2.22 2.22 0 0 0-2.23 2.23z" stroke="#000" stroke-width="2.22" fill="#ebf1df"/><path d="M983.07 809.52a1.1 1.1 0 0 0 1.1 1.1h167.87a1.1 1.1 0 0 0 1.1-1.1v-40.3a1.1 1.1 0 0 0-1.1-1.1H984.18a1.1 1.1 0 0 0-1.1 1.1z" stroke="#000" stroke-width="2.22" fill="#ebf1df"/><path d="M983.07 810.63v-40.3a2.22 2.22 0 0 1 2.22-2.22h165.63a2.22 2.22 0 0 1 2.22 2.23v40.3" fill="none"/><use xlink:href="#c" transform="matrix(1,0,0,1,991.9151079999998,776.9966799999999) translate(24.59898193359374 21.622233886718753)"/><path d="M976.77 711.42h126v25.2h-126z" fill="#fff" fill-opacity="0"/><path d="M976.77 736.6h126v-25.18h-126z" fill="#fff"/><use xlink:href="#d" transform="matrix(1,0,0,1,979.0397120000001,711.4169999999999) translate(0 22.47384033203125)"/><path d="M273.04 758.93h153.8M290.5 768.93l-17.32-10 17.32-10" stroke="#000" stroke-width="1.6" fill="none"/><path d="M427.63 759.7h-.82v-1.54h.83z" stroke="#000" stroke-width=".05"/><use xlink:href="#e" transform="matrix(1,0,0,1,279.8701525,772.9333333333334) translate(0.004999999999999005 16.09375)"/><path d="M554.73 708.85v-293.5a18.9 18.9 0 0 0-18.9-18.9h-88.2a18.9 18.9 0 0 1-18.9-18.9v-10.68" stroke="#000" stroke-width="1.6" fill="none"/><path d="M564.73 691.4l-10 17.3-10-17.3" stroke="#000" stroke-width="1.6" fill="none"/><path d="M429.52 366.9h-1.55v-.83h1.55z" stroke="#000" stroke-width=".05"/><path d="M680.7 267.9V226.4a18.9 18.9 0 0 0-18.9-18.9H179.15a18.9 18.9 0 0 1-18.9-18.9V146.4" stroke="#000" stroke-width="1.6" fill="none"/><path d="M690.7 250.44l-10 17.32-10-17.32" stroke="#000" stroke-width="1.6" fill="none"/><path d="M161 146.42h-1.54v-.82H161z" stroke="#000" stroke-width=".05"/><use xlink:href="#f" transform="matrix(1,0,0,1,698.709,247.48745892686406) translate(0.004999999999999005 16.09375)"/><path d="M966.4 459.45h184.53a2.22 2.22 0 0 1 2.22 2.22v90.05a2.22 2.22 0 0 1-2.22 2.22H966.4a2.22 2.22 0 0 1-2.23-2.22v-90.05a2.22 2.22 0 0 1 2.22-2.22" stroke="#000" stroke-width="2.22" fill="#fff2cc"/><use xlink:href="#g" transform="matrix(1,0,0,1,969.1739999999998,464.4490000000001) translate(45.371220703125 37.515001953125)"/><use xlink:href="#h" transform="matrix(1,0,0,1,969.1739999999998,464.4490000000001) translate(47.003369140625 72.748572265625)"/><path d="M430.96 711.42H678.5a2.22 2.22 0 0 1 2.2 2.22v90.04a2.22 2.22 0 0 1-2.2 2.23H430.95a2.22 2.22 0 0 1-2.22-2.22v-90.04a2.22 2.22 0 0 1 2.22-2.22" stroke="#000" stroke-width="2.22" fill="#fff2cc"/><use xlink:href="#i" transform="matrix(1,0,0,1,433.7410000000001,716.417) translate(12.64444335937499 55.131787109375)"/><path d="M714.42 459.45h184.54a2.22 2.22 0 0 1 2.22 2.22v90.05a2.22 2.22 0 0 1-2.22 2.22H714.42a2.22 2.22 0 0 1-2.2-2.22v-90.05a2.22 2.22 0 0 1 2.2-2.22" stroke="#000" stroke-width="2.22" fill="#fff2cc"/><use xlink:href="#j" transform="matrix(1,0,0,1,717.2049999999999,464.4490000000001) translate(47.003369140625 55.131787109375)"/><path d="M840.4 270.47h184.55a2.22 2.22 0 0 1 2.22 2.22v90.04a2.22 2.22 0 0 1-2.22 2.22H840.4a2.22 2.22 0 0 1-2.2-2.22V272.7a2.22 2.22 0 0 1 2.2-2.23" stroke="#000" stroke-width="2.22" fill="#ebf1df"/><use xlink:href="#k" transform="matrix(1,0,0,1,843.1899999999999,275.472) translate(37.11498046875 55.131787109375)"/><path d="M588.44 270.47h184.54a2.22 2.22 0 0 1 2.22 2.22v90.04a2.22 2.22 0 0 1-2.22 2.22H588.44a2.22 2.22 0 0 1-2.22-2.22V272.7a2.22 2.22 0 0 1 2.22-2.23" stroke="#000" stroke-width="2.22" fill="#ebf1df"/><use xlink:href="#l" transform="matrix(1,0,0,1,591.2209999999999,275.472) translate(36.168681640624996 55.131787109375)"/><path d="M67.97 50H252.5a2.22 2.22 0 0 1 2.22 2.22v90.05a2.22 2.22 0 0 1-2.22 2.22H67.97a2.22 2.22 0 0 1-2.22-2.23V52.22A2.22 2.22 0 0 1 67.97 50" stroke="#000" stroke-width="2.22" fill="#ebf1df"/><use xlink:href="#m" transform="matrix(1,0,0,1,70.74899999999991,55.00000000000003) translate(50.97087890624999 55.131787109375)"/><path d="M336.47 270.47H521a2.22 2.22 0 0 1 2.23 2.22v90.04a2.22 2.22 0 0 1-2.22 2.22H336.48a2.22 2.22 0 0 1-2.22-2.22V272.7a2.22 2.22 0 0 1 2.22-2.23" stroke="#000" stroke-width="2.22" fill="#ebf1df"/><use xlink:href="#n" transform="matrix(1,0,0,1,339.2529999999999,275.472) translate(24.30087890624999 55.131787109375)"/><path d="M52.22 459.45h216.03a2.22 2.22 0 0 1 2.22 2.22v90.05a2.22 2.22 0 0 1-2.22 2.22H52.22a2.22 2.22 0 0 1-2.22-2.22v-90.05a2.22 2.22 0 0 1 2.22-2.22" stroke="#000" stroke-width="2.22" fill="#dbeef3"/><use xlink:href="#o" transform="matrix(1,0,0,1,55,464.4490000000001) translate(26.44498046874999 37.515001953125)"/><use xlink:href="#p" transform="matrix(1,0,0,1,55,464.4490000000001) translate(70.938388671875 72.748572265625)"/><path d="M932.68 267.9V226.4a18.9 18.9 0 0 0-18.9-18.9H179.14a18.9 18.9 0 0 1-18.9-18.9V146.4" stroke="#000" stroke-width="1.6" fill="none"/><path d="M942.68 250.44l-10 17.32-10-17.32" stroke="#000" stroke-width="1.6" fill="none"/><path d="M161 146.42h-1.54v-.82H161z" stroke="#000" stroke-width=".05"/><use xlink:href="#f" transform="matrix(1,0,0,1,950.678,251.278574619682) translate(0.004999999999999005 16.09375)"/><path d="M428.74 267.9V226.4a18.9 18.9 0 0 0-18.9-18.9h-230.7a18.9 18.9 0 0 1-18.9-18.9V146.4" stroke="#000" stroke-width="1.6" fill="none"/><path d="M438.74 250.44l-10 17.32-10-17.32" stroke="#000" stroke-width="1.6" fill="none"/><path d="M161 146.42h-1.54v-.82H161z" stroke="#000" stroke-width=".05"/><use xlink:href="#f" transform="matrix(1,0,0,1,446.74099999999993,248.7356932340461) translate(0.004999999999999005 16.09375)"/><path d="M806.7 456.88V415.2a18.9 18.9 0 0 1 18.9-18.9h88.18a18.9 18.9 0 0 0 18.9-18.9v-10.53" stroke="#000" stroke-width="1.6" fill="none"/><path d="M816.7 439.42l-10 17.32-10-17.32" stroke="#000" stroke-width="1.6" fill="none"/><path d="M933.45 366.9h-1.55v-.83h1.55z" stroke="#000" stroke-width=".05"/><use xlink:href="#f" transform="matrix(1,0,0,1,824.694023495047,434.7292421074277) translate(0.004999999999999005 16.09375)"/><path d="M1058.66 456.88V415.2a18.9 18.9 0 0 0-18.9-18.9h-88.18a18.9 18.9 0 0 1-18.9-18.9v-10.53" stroke="#000" stroke-width="1.6" fill="none"/><path d="M1068.66 439.42l-10 17.32-10-17.32" stroke="#000" stroke-width="1.6" fill="none"/><path d="M933.45 366.9h-1.55v-.83h1.55z" stroke="#000" stroke-width=".05"/><use xlink:href="#f" transform="matrix(1,0,0,1,1076.6619999999998,434.7292404627744) translate(0.004999999999999005 16.09375)"/><path d="M160.24 456.88V146.4M170.24 439.42l-10 17.32-10-17.32" stroke="#000" stroke-width="1.6" fill="none"/><path d="M161 146.42h-1.54v-.82H161z" stroke="#000" stroke-width=".05"/><use xlink:href="#f" transform="matrix(1,0,0,1,178.23702349504697,427.194199845463) translate(0.004999999999999005 16.09375)"/><path d="M52.22 711.42h216.03a2.22 2.22 0 0 1 2.22 2.22v90.04a2.22 2.22 0 0 1-2.22 2.23H52.22a2.22 2.22 0 0 1-2.22-2.22v-90.04a2.22 2.22 0 0 1 2.22-2.22" stroke="#000" stroke-width="2.22" fill="#dbeef3"/><use xlink:href="#q" transform="matrix(1,0,0,1,55,716.417) translate(17.919609374999993 37.515001953125)"/><use xlink:href="#r" transform="matrix(1,0,0,1,55,716.417) translate(49.21692382812499 72.748572265625)"/><path d="M619.2 708.85v-41.53a18.9 18.9 0 0 1 18.9-18.9h149.7a18.9 18.9 0 0 0 18.9-18.9v-73.67" stroke="#000" stroke-width="1.6" fill="none"/><path d="M629.2 691.4l-10 17.3-10-17.3" stroke="#000" stroke-width="1.6" fill="none"/><path d="M807.47 555.87h-1.55v-.82h1.55z" stroke="#000" stroke-width=".05"/><path d="M619.2 708.85v-41.53a18.9 18.9 0 0 1 18.9-18.9h401.66a18.9 18.9 0 0 0 18.9-18.9v-73.67" stroke="#000" stroke-width="1.6" fill="none"/><path d="M629.2 691.4l-10 17.3-10-17.3" stroke="#000" stroke-width="1.6" fill="none"/><path d="M1059.44 555.87h-1.55v-.82h1.54z" stroke="#000" stroke-width=".05"/><use xlink:href="#f" transform="matrix(1,0,0,1,637.1970000000003,689.1930703125004) translate(0.004999999999999005 16.09375)"/><path d="M554.73 708.85v-293.5a18.9 18.9 0 0 1 18.9-18.9h88.18a18.9 18.9 0 0 0 18.9-18.9v-10.68" stroke="#000" stroke-width="1.6" fill="none"/><path d="M564.73 691.4l-10 17.3-10-17.3" stroke="#000" stroke-width="1.6" fill="none"/><path d="M681.48 366.9h-1.55v-.83h1.55z" stroke="#000" stroke-width=".05"/><use xlink:href="#f" transform="matrix(1,0,0,1,572.725,688.6930703125004) translate(0.004999999999999005 16.09375)"/><path d="M865.6 50h285.33a2.22 2.22 0 0 1 2.22 2.22v90.05a2.22 2.22 0 0 1-2.22 2.22H865.6a2.22 2.22 0 0 1-2.2-2.23V52.22a2.22 2.22 0 0 1 2.2-2.22" stroke="#000" stroke-width="2.22" fill="#fff2cc"/><use xlink:href="#s" transform="matrix(1,0,0,1,868.3860000000002,55.00000000000003) translate(107.3917578125 42.79300537109375)"/><use xlink:href="#t" transform="matrix(1,0,0,1,868.3860000000002,55.00000000000003) translate(55.471206054687485 66.30288818359375)"/><path d="M488.8 709.3v-54.88a6 6 0 0 0-6-6H225.4a6 6 0 0 1-6-6V585.8" stroke="#3a414a" stroke-width="2" fill="none"/><path d="M489.8 710.3h-1.97v-1.02h1.96z" stroke="#3a414a" stroke-width=".05" fill="#3a414a"/><path d="M219.4 556.46l-14.84 14.85 14.85 14.86 14.86-14.85z" stroke="#3a414a" stroke-width="2" fill="#3a414a"/><path d="M484.4 680.5a5 5 0 0 1 5-5h40a5 5 0 0 1 5 5v35a5 5 0 0 1-5 5h-40a5 5 0 0 1-5-5z" fill="none"/><use xlink:href="#u" transform="matrix(1,0,0,1,484.40999999999997,675.4960000000001) translate(8.3203125 29.3408203125)"/><path d="M160 709.3V585.8" stroke="#3a414a" stroke-width="2" fill="none"/><path d="M160.97 710.3h-1.94v-1.02h1.94z" stroke="#3a414a" stroke-width=".05" fill="#3a414a"/><path d="M160 556.46l-14.85 14.85L160 586.17l14.85-14.85z" stroke="#3a414a" stroke-width="2" fill="#3a414a"/><g><use xlink:href="#v" transform="matrix(1,0,0,1,122.00000000000006,680.1333333333334) translate(0 14.4)"/></g><defs><path d="M613 0H400L7-1082h192c109 337 207 579 307 941 97-323 214-627 320-941h191" id="w"/><path d="M137-1312v-172h180v172H137zM137 0v-1082h180V0H137" id="x"/><path d="M513-963c-139 1-238 29-238 149 0 72 41 100 95 127 55 27 348 94 404 125 101 56 176 118 176 263C950-73 758 21 511 20 254 19 107-55 57-254l159-31c34 123 133 168 295 168 156 0 264-34 264-168 0-156-183-165-315-204-171-51-245-68-323-172-26-35-37-82-37-135 0-220 172-304 413-303 232 1 379 74 418 265l-162 20c-23-104-122-150-256-149" id="y"/><path d="M476 20C225 20 133-99 133-361v-721h181v686c0 183 40 279 223 277 184-2 280-141 280-336v-627h180c3 345-6 754 6 1082H833c-5-68-6-94-8-185h-3C746-51 665 20 476 20" id="z"/><path d="M797-207C713-60 620 16 414 20 203 24 88-98 87-302c0-112 37-198 111-258s192-93 356-96l243-4c10-201-43-307-232-305-154 2-223 43-242 172l-188-17c31-195 175-292 434-292s410 116 410 364v466c3 95 12 159 101 161 17 0 37-2 59-7V-6c-45 11-92 16-139 16-143-2-188-76-197-217h-6zm-525-92c-1 116 66 187 183 184 230-7 361-164 342-419-124 5-305-2-389 30-83 32-136 92-136 205" id="A"/><path d="M138 0v-1484h180V0H138" id="B"/><g id="a"><use transform="matrix(0.0130224609375,0,0,0.0130224609375,0,0)" xlink:href="#w"/><use transform="matrix(0.0130224609375,0,0,0.0130224609375,13.335,0)" xlink:href="#x"/><use transform="matrix(0.0130224609375,0,0,0.0130224609375,19.2602197265625,0)" xlink:href="#y"/><use transform="matrix(0.0130224609375,0,0,0.0130224609375,32.595219726562505,0)" xlink:href="#z"/><use transform="matrix(0.0130224609375,0,0,0.0130224609375,47.42780273437501,0)" xlink:href="#A"/><use transform="matrix(0.0130224609375,0,0,0.0130224609375,62.2603857421875,0)" xlink:href="#B"/></g><path d="M492-1341c-103 3-130 49-131 162v97h211v131H361V0H181v-951H29v-131h152v-122c0-192 78-276 264-278 50 0 92 4 127 12v137c-30-5-57-8-80-8" id="C"/><path d="M663-1102c251 0 343 119 343 381V0H825v-686c0-183-40-279-223-277-184 2-280 141-280 336V0H142c-3-345 6-754-6-1082h170c5 68 6 94 8 185h3c76-134 157-205 346-205" id="D"/><path d="M779-765c-19-119-93-196-233-196-95 0-164 32-207 95s-64 170-64 320c0 144 23 251 68 320s114 104 205 104c139 0 224-79 240-212l182 12C946-119 781 22 553 20 230 17 87-201 87-542c0-338 145-557 464-560 225-1 380 129 413 323" id="E"/><path d="M336-268c2 98 22 139 114 141 24 0 59-5 104-14V-8C495 8 434 16 372 16c-144 0-216-82-216-245v-722H31v-131h132l53-242h120v242h200v131H336v683" id="F"/><path d="M571-1102c350 0 480 196 482 560 2 357-151 562-488 562C233 20 86-198 86-542c0-373 162-560 485-560zm-8 989c244 0 301-164 301-429 0-266-49-427-290-427-239 0-299 165-299 427 0 252 61 429 288 429" id="G"/><g id="b"><use transform="matrix(0.0130224609375,0,0,0.0130224609375,0,0)" xlink:href="#C"/><use transform="matrix(0.0130224609375,0,0,0.0130224609375,7.409780273437501,0)" xlink:href="#z"/><use transform="matrix(0.0130224609375,0,0,0.0130224609375,22.24236328125,0)" xlink:href="#D"/><use transform="matrix(0.0130224609375,0,0,0.0130224609375,37.0749462890625,0)" xlink:href="#E"/><use transform="matrix(0.0130224609375,0,0,0.0130224609375,50.4099462890625,0)" xlink:href="#F"/><use transform="matrix(0.0130224609375,0,0,0.0130224609375,57.8197265625,0)" xlink:href="#x"/><use transform="matrix(0.0130224609375,0,0,0.0130224609375,63.744946289062504,0)" xlink:href="#G"/><use transform="matrix(0.0130224609375,0,0,0.0130224609375,78.577529296875,0)" xlink:href="#D"/><use transform="matrix(0.0130224609375,0,0,0.0130224609375,93.4101123046875,0)" xlink:href="#A"/><use transform="matrix(0.0130224609375,0,0,0.0130224609375,108.2426953125,0)" xlink:href="#B"/></g><path d="M824-897c-1-17 6-175 12-185h171c-12 319-6 716-6 1051 0 304-151 456-453 456-226 0-374-90-417-267l181-26c24 102 112 157 241 156 179 0 269-105 269-315 0-57 3-120-2-174C759-74 647 8 472 8 339 8 242-36 180-124S86-350 86-539c0-191 33-332 100-423s169-137 306-137c167 0 273 85 332 202zm-38 579c48-119 46-331 0-450-42-108-118-197-250-197-92 0-154 37-201 100-78 107-74 530-4 643 63 101 251 129 353 47 43-35 77-81 102-143" id="H"/><path d="M318-861c55-157 83-241 257-241 24 0 48 3 73 10v165c-24-7-56-10-96-10-75 0-132 33-171 97s-59 156-59 276V0H142c-3-364 6-725-6-1082h170c5 123 8 196 8 221h4" id="I"/><path d="M320-908c63-128 152-193 335-193 133 0 233 45 299 134s99 230 99 421c0 377-133 566-398 566-167 0-279-63-336-188h-5c8 141 2 428 4 593H138V-861c0-111-2-185-6-221h174c5 33 9 134 10 174h4zm-2 380c0 254 57 415 289 415 89 0 149-37 195-99 76-105 79-547 1-653-45-62-105-97-194-97-243 1-291 184-291 434" id="J"/><g id="c"><use transform="matrix(0.0130224609375,0,0,0.0130224609375,0,0)" xlink:href="#H"/><use transform="matrix(0.0130224609375,0,0,0.0130224609375,14.8325830078125,0)" xlink:href="#I"/><use transform="matrix(0.0130224609375,0,0,0.0130224609375,23.713901367187503,0)" xlink:href="#G"/><use transform="matrix(0.0130224609375,0,0,0.0130224609375,38.546484375000006,0)" xlink:href="#z"/><use transform="matrix(0.0130224609375,0,0,0.0130224609375,53.3790673828125,0)" xlink:href="#J"/><use transform="matrix(0.0130224609375,0,0,0.0130224609375,68.21165039062501,0)" xlink:href="#x"/><use transform="matrix(0.0130224609375,0,0,0.0130224609375,74.13687011718751,0)" xlink:href="#D"/><use transform="matrix(0.0130224609375,0,0,0.0130224609375,88.96945312500002,0)" xlink:href="#H"/></g><path d="M137 0v-1409h295v1181h756V0H137" id="K"/><path d="M375-487c-1 185 60 319 225 319 99 0 162-43 188-129l265 23C976-78 821 20 586 20 247 19 80-194 80-546c0-344 176-559 510-556 341 3 483 247 479 615H375zm422-176c-8-153-68-262-211-262-144 0-206 112-209 262h420" id="L"/><path d="M1108-33c0 316-189 467-512 467-247 0-427-94-467-291l281-33c20 86 88 139 194 139 188 0 233-141 225-343-1-35 4-75 0-107C767-68 651-2 481-2 198-2 84-238 84-550c0-320 120-553 418-553 157 0 266 65 327 195h5c-1-34 7-149 14-174h266c-12 332-6 705-6 1049zM600-197c173 0 231-162 231-359 0-191-60-354-229-354-150 0-225 120-225 360 0 235 74 353 223 353" id="M"/><path d="M768-1103c243 0 356 161 356 416V0H844v-607c0-190-64-285-193-285-148 1-227 151-227 312V0H143c-4-356 9-741-8-1082h268c4 18 14 191 13 215h4c67-145 160-236 348-236" id="N"/><path d="M500-1102c166 0 271 75 329 191-3-189-2-382-2-573h281v1248c0 67 3 145 8 236H844c-6-25-16-141-15-176h-4C764-45 649 20 479 20c-126 0-223-50-292-148S84-363 84-540c0-321 122-562 416-562zm331 555c0-200-54-364-231-364-75 0-131 30-168 91s-55 155-55 280c0 245 74 368 221 368 74 0 131-33 172-98s61-157 61-277" id="O"/><g id="d"><use transform="matrix(0.0130224609375,0,0,0.0130224609375,0,0)" xlink:href="#K"/><use transform="matrix(0.0130224609375,0,0,0.0130224609375,16.291098632812503,0)" xlink:href="#L"/><use transform="matrix(0.0130224609375,0,0,0.0130224609375,31.123681640625,0)" xlink:href="#M"/><use transform="matrix(0.0130224609375,0,0,0.0130224609375,47.4147802734375,0)" xlink:href="#L"/><use transform="matrix(0.0130224609375,0,0,0.0130224609375,62.24736328125,0)" xlink:href="#N"/><use transform="matrix(0.0130224609375,0,0,0.0130224609375,78.53846191406251,0)" xlink:href="#O"/></g><path d="M1059-705c0 235-42 415-125 539S729 20 567 20 283-42 202-165 80-468 80-705c0-242 39-423 118-544s204-181 375-181c166 0 288 61 367 183s119 303 119 542zM802-269c94-156 93-724 4-878-51-89-125-137-233-137-111 0-186 48-239 135-91 149-91 731 2 883 55 89 126 139 233 139 106 0 178-51 233-142" id="P"/><path d="M187 0v-219h195V0H187" id="Q"/><path d="M156 0v-153h359v-1084l-318 227v-170l333-229h166v1256h343V0H156" id="R"/><g id="e"><use transform="matrix(0.009765625,0,0,0.009765625,0,0)" xlink:href="#P"/><use transform="matrix(0.009765625,0,0,0.009765625,11.123046875,0)" xlink:href="#Q"/><use transform="matrix(0.009765625,0,0,0.009765625,16.6796875,0)" xlink:href="#Q"/><use transform="matrix(0.009765625,0,0,0.009765625,22.236328125,0)" xlink:href="#R"/></g><g id="f"><use transform="matrix(0.009765625,0,0,0.009765625,0,0)" xlink:href="#P"/><use transform="matrix(0.009765625,0,0,0.009765625,11.123046875,0)" xlink:href="#Q"/><use transform="matrix(0.009765625,0,0,0.009765625,16.6796875,0)" xlink:href="#Q"/><use transform="matrix(0.009765625,0,0,0.009765625,22.236328125,0)" xlink:href="#D"/></g><path d="M551-279c84-418 84-397 254-1130h330c93 424 173 655 249 1130 85-375 166-752 248-1130h299L1567 0h-350c-82-373-182-728-250-1116C902-767 895-785 715 0H365L2-1409h299c83 377 171 749 250 1130" id="S"/><path d="M627-1102c355 0 544 203 544 560 0 345-207 562-550 562C283 20 80-201 80-542c0-343 204-560 547-560zM375-542c0 208 60 370 243 370 173 0 259-123 259-370 0-129-21-222-63-280s-103-87-183-87c-171 0-256 122-256 367" id="T"/><path d="M646-868c-165 0-222 146-222 337V0H143c-4-356 8-741-8-1082h268c4 15 14 211 13 231h4c48-123 63-177 149-229 44-27 147-31 197-8v235c-45-10-85-15-120-15" id="U"/><path d="M834 0L545-490l-121 84V0H143v-1484h281v850l386-448h302L732-660 1141 0H834" id="V"/><g id="g"><use transform="matrix(0.01736328125,0,0,0.01736328125,0,0)" xlink:href="#S"/><use transform="matrix(0.01736328125,0,0,0.01736328125,32.920781250000005,0)" xlink:href="#T"/><use transform="matrix(0.01736328125,0,0,0.01736328125,54.64224609375,0)" xlink:href="#U"/><use transform="matrix(0.01736328125,0,0,0.01736328125,68.48078125,0)" xlink:href="#V"/></g><path d="M770-1409c315-3 526 146 526 446 0 301-203 467-514 467H432V0H137v-1409h633zm-25 686c158 1 255-80 254-235 0-148-87-222-262-222H432v457h313" id="W"/><path d="M972 12c-145 0-202-73-217-205h-6C670-51 552 20 393 20 187 20 58-100 60-306c3-242 172-345 427-346l233-4c5-152-16-266-158-264-112 2-147 49-160 153l-293-14c38-217 204-321 465-321 262 0 427 133 427 388v394c3 101 7 160 89 160 21 0 42-2 62-6v152c-57 15-108 27-180 26zM483-176c165 0 247-140 237-325-89 1-231-1-283 23-55 25-84 70-84 150 0 94 44 152 130 152" id="X"/><g id="h"><use transform="matrix(0.01736328125,0,0,0.01736328125,0,0)" xlink:href="#W"/><use transform="matrix(0.01736328125,0,0,0.01736328125,23.718242187500003,0)" xlink:href="#X"/><use transform="matrix(0.01736328125,0,0,0.01736328125,43.49501953125001,0)" xlink:href="#M"/><use transform="matrix(0.01736328125,0,0,0.01736328125,65.21648437500001,0)" xlink:href="#L"/></g><path d="M834 0H535L14-1409h308c123 400 253 753 364 1171 104-406 242-780 361-1171h305" id="Y"/><path d="M143-1277v-207h281v207H143zM143 0v-1082h281V0H143" id="Z"/><path d="M573-916c-112 0-200 14-200 111 0 88 73 97 168 120 199 47 392 70 479 217 24 40 35 90 35 152 0 237-220 338-484 336-282-2-439-78-499-290l247-37c36 115 92 141 252 141 130 0 226-17 226-124 0-35-14-62-43-82s-79-38-148-52c-159-31-266-61-321-88-100-50-170-123-170-263 0-232 201-328 458-328 245 0 416 95 457 292l-249 26c-21-98-82-131-208-131" id="aa"/><path d="M483 20c-243 0-356-160-356-415v-687h281v607c0 190 64 285 192 285 148-1 227-151 227-312v-580h281c4 356-9 741 8 1082H848c-8-96-12-168-12-215h-5C765-71 670 20 483 20" id="ab"/><path d="M143 0v-1484h281V0H143" id="ac"/><path d="M82 0v-199l509-680H123v-203h778v201L395-205h555V0H82" id="ad"/><path d="M440-330c0 98 31 152 123 154 22 0 53-5 94-14v174C588 7 509 18 420 18c-170-1-258-95-258-272v-638H25v-190h151l88-254h176v254h205v190H440v562" id="ae"/><g id="i"><use transform="matrix(0.01736328125,0,0,0.01736328125,0,0)" xlink:href="#Y"/><use transform="matrix(0.01736328125,0,0,0.01736328125,23.075800781250003,0)" xlink:href="#Z"/><use transform="matrix(0.01736328125,0,0,0.01736328125,32.9555078125,0)" xlink:href="#aa"/><use transform="matrix(0.01736328125,0,0,0.01736328125,52.73228515625,0)" xlink:href="#ab"/><use transform="matrix(0.01736328125,0,0,0.01736328125,74.45375,0)" xlink:href="#X"/><use transform="matrix(0.01736328125,0,0,0.01736328125,94.23052734374998,0)" xlink:href="#ac"/><use transform="matrix(0.01736328125,0,0,0.01736328125,104.110234375,0)" xlink:href="#Z"/><use transform="matrix(0.01736328125,0,0,0.01736328125,113.98994140625001,0)" xlink:href="#ad"/><use transform="matrix(0.01736328125,0,0,0.01736328125,131.76994140625,0)" xlink:href="#X"/><use transform="matrix(0.01736328125,0,0,0.01736328125,151.54671875,0)" xlink:href="#ae"/><use transform="matrix(0.01736328125,0,0,0.01736328125,163.38847656250002,0)" xlink:href="#Z"/><use transform="matrix(0.01736328125,0,0,0.01736328125,173.26818359375002,0)" xlink:href="#T"/><use transform="matrix(0.01736328125,0,0,0.01736328125,194.98964843750002,0)" xlink:href="#N"/></g><g id="j"><use transform="matrix(0.01736328125,0,0,0.01736328125,0,0)" xlink:href="#W"/><use transform="matrix(0.01736328125,0,0,0.01736328125,23.718242187500003,0)" xlink:href="#X"/><use transform="matrix(0.01736328125,0,0,0.01736328125,43.49501953125001,0)" xlink:href="#M"/><use transform="matrix(0.01736328125,0,0,0.01736328125,65.21648437500001,0)" xlink:href="#L"/></g><path d="M963-1038c-32-126-120-183-283-183-179 0-268 56-268 168 0 86 48 119 113 149 80 38 447 109 517 142 145 68 244 156 244 356 0 138-55 238-154 316C960 46 446 53 257-76 157-144 88-237 59-367l285-47c41 153 150 213 346 213 206 0 309-63 309-188 0-94-62-130-135-164-58-27-400-96-468-123-154-61-270-150-271-360 0-127 47-224 143-292s235-102 418-102c336 0 504 85 563 353" id="af"/><path d="M408-1082c8 36 12 125 12 176h4c63-133 179-199 346-199 126 0 224 48 293 145s104 235 104 414c0 322-121 566-415 566-162 0-274-77-328-192h-6c11 149 4 424 6 597H143V-833c0-102-3-185-8-249h273zm243 172c-175 0-232 173-231 372 0 117 20 206 60 270s96 96 169 96c150 0 225-125 225-374 0-243-74-364-223-364" id="ag"/><path d="M1079-360C1041-124 864 17 594 20 261 23 80-197 80-535c0-344 180-567 518-567 257 0 435 142 473 361l-283 14c-16-106-75-182-196-182-145 0-217 121-217 363 0 249 74 374 221 374 120 0 188-82 201-201" id="ah"/><g id="k"><use transform="matrix(0.01736328125,0,0,0.01736328125,0,0)" xlink:href="#af"/><use transform="matrix(0.01736328125,0,0,0.01736328125,23.718242187500003,0)" xlink:href="#ag"/><use transform="matrix(0.01736328125,0,0,0.01736328125,45.43970703125001,0)" xlink:href="#X"/><use transform="matrix(0.01736328125,0,0,0.01736328125,65.21648437500001,0)" xlink:href="#ah"/><use transform="matrix(0.01736328125,0,0,0.01736328125,84.99326171875,0)" xlink:href="#L"/></g><path d="M381-711c0 298 141 498 425 500 147 1 314-50 390-119v-195H852v-218h614v518C1331-81 1070 20 798 20 339 20 84-251 84-711c0-462 259-719 721-719 331 0 541 122 631 367l-272 82c-53-134-180-216-359-217-289 0-424 189-424 487" id="ai"/><g id="l"><use transform="matrix(0.01736328125,0,0,0.01736328125,0,0)" xlink:href="#ai"/><use transform="matrix(0.01736328125,0,0,0.01736328125,27.65970703125,0)" xlink:href="#U"/><use transform="matrix(0.01736328125,0,0,0.01736328125,41.498242187500004,0)" xlink:href="#T"/><use transform="matrix(0.01736328125,0,0,0.01736328125,63.21970703125001,0)" xlink:href="#ab"/><use transform="matrix(0.01736328125,0,0,0.01736328125,84.94117187500001,0)" xlink:href="#ag"/></g><path d="M1367-989c1 207-135 359-311 397L1437 0h-332L778-535H432V0H137v-1409h704c309-2 524 129 526 420zM818-764c154 2 252-69 252-213 0-135-87-203-260-203H432v416h386" id="aj"/><g id="m"><use transform="matrix(0.01736328125,0,0,0.01736328125,0,0)" xlink:href="#aj"/><use transform="matrix(0.01736328125,0,0,0.01736328125,25.680292968750003,0)" xlink:href="#T"/><use transform="matrix(0.01736328125,0,0,0.01736328125,47.40175781250001,0)" xlink:href="#ac"/><use transform="matrix(0.01736328125,0,0,0.01736328125,57.28146484375001,0)" xlink:href="#L"/></g><path d="M381-711c0 302 128 499 414 499 178 0 302-89 371-268l257 97c-99 251-300 400-628 403C342 25 84-257 84-711c0-457 243-719 698-719 334 0 540 138 623 392l-260 71c-40-136-182-233-357-231-284 2-407 189-407 487" id="ak"/><g id="n"><use transform="matrix(0.01736328125,0,0,0.01736328125,0,0)" xlink:href="#ak"/><use transform="matrix(0.01736328125,0,0,0.01736328125,25.680292968750003,0)" xlink:href="#X"/><use transform="matrix(0.01736328125,0,0,0.01736328125,45.45707031250001,0)" xlink:href="#ae"/><use transform="matrix(0.01736328125,0,0,0.01736328125,57.29882812500001,0)" xlink:href="#X"/><use transform="matrix(0.01736328125,0,0,0.01736328125,77.07560546875,0)" xlink:href="#ac"/><use transform="matrix(0.01736328125,0,0,0.01736328125,86.95531250000002,0)" xlink:href="#T"/><use transform="matrix(0.01736328125,0,0,0.01736328125,108.67677734375002,0)" xlink:href="#M"/></g><path d="M1036-741c206 23 350 127 350 339 0 282-238 402-544 402H137v-1409h645c172 0 302 29 390 89s133 148 133 265c0 179-106 282-269 314zM770-841c149 0 238-41 238-174 0-139-94-175-240-175H432v349h338zm47 622c171 0 273-51 273-206 0-132-95-198-284-198H432v404h385" id="al"/><g id="o"><use transform="matrix(0.01736328125,0,0,0.01736328125,0,0)" xlink:href="#al"/><use transform="matrix(0.01736328125,0,0,0.01736328125,25.680292968750003,0)" xlink:href="#ab"/><use transform="matrix(0.01736328125,0,0,0.01736328125,47.40175781250001,0)" xlink:href="#aa"/><use transform="matrix(0.01736328125,0,0,0.01736328125,67.17853515625,0)" xlink:href="#Z"/><use transform="matrix(0.01736328125,0,0,0.01736328125,77.05824218750001,0)" xlink:href="#N"/><use transform="matrix(0.01736328125,0,0,0.01736328125,98.77970703125001,0)" xlink:href="#L"/><use transform="matrix(0.01736328125,0,0,0.01736328125,118.55648437500001,0)" xlink:href="#aa"/><use transform="matrix(0.01736328125,0,0,0.01736328125,138.33326171875,0)" xlink:href="#aa"/></g><path d="M1133 0l-125-360H471L346 0H51l514-1409h348L1425 0h-292zM739-1192c-50 182-61 194-202 610h405c-68-203-141-401-203-610" id="am"/><g id="p"><use transform="matrix(0.01736328125,0,0,0.01736328125,0,0)" xlink:href="#am"/><use transform="matrix(0.01736328125,0,0,0.01736328125,25.680292968750003,0)" xlink:href="#ag"/><use transform="matrix(0.01736328125,0,0,0.01736328125,47.40175781250001,0)" xlink:href="#ag"/></g><path d="M773-1181V0H478v-1181H23v-228h1206v228H773" id="an"/><g id="q"><use transform="matrix(0.01736328125,0,0,0.01736328125,0,0)" xlink:href="#an"/><use transform="matrix(0.01736328125,0,0,0.01736328125,19.08224609375,0)" xlink:href="#X"/><use transform="matrix(0.01736328125,0,0,0.01736328125,38.8590234375,0)" xlink:href="#U"/><use transform="matrix(0.01736328125,0,0,0.01736328125,52.69755859375,0)" xlink:href="#M"/><use transform="matrix(0.01736328125,0,0,0.01736328125,74.4190234375,0)" xlink:href="#L"/><use transform="matrix(0.01736328125,0,0,0.01736328125,94.19580078125,0)" xlink:href="#ae"/><use transform="matrix(0.01736328125,0,0,0.01736328125,106.03755859375,0)" xlink:href="#am"/><use transform="matrix(0.01736328125,0,0,0.01736328125,131.71785156250002,0)" xlink:href="#ag"/><use transform="matrix(0.01736328125,0,0,0.01736328125,153.43931640625001,0)" xlink:href="#ag"/></g><path d="M604-1296c-97 2-130 31-131 129v85h213v190H473V0H193v-892H35v-190h158v-113c1-202 109-289 315-289 53 0 112 5 178 16v181c-27-6-55-9-82-9" id="ao"/><g id="r"><use transform="matrix(0.01736328125,0,0,0.01736328125,0,0)" xlink:href="#ak"/><use transform="matrix(0.01736328125,0,0,0.01736328125,25.680292968750003,0)" xlink:href="#T"/><use transform="matrix(0.01736328125,0,0,0.01736328125,47.40175781250001,0)" xlink:href="#N"/><use transform="matrix(0.01736328125,0,0,0.01736328125,69.12322265625001,0)" xlink:href="#ao"/><use transform="matrix(0.01736328125,0,0,0.01736328125,80.96498046875003,0)" xlink:href="#Z"/><use transform="matrix(0.01736328125,0,0,0.01736328125,90.84468750000002,0)" xlink:href="#M"/></g><g id="s"><use transform="matrix(0.01736328125,0,0,0.01736328125,0,0)" xlink:href="#af"/><use transform="matrix(0.01736328125,0,0,0.01736328125,23.718242187500003,0)" xlink:href="#Z"/><use transform="matrix(0.01736328125,0,0,0.01736328125,33.59794921875,0)" xlink:href="#ae"/><use transform="matrix(0.01736328125,0,0,0.01736328125,45.43970703125,0)" xlink:href="#L"/></g><path d="M101-571v-205l995-418v154L238-674l858 367v153" id="ap"/><path d="M87-548c0-338 159-553 484-554 325-2 484 204 477 599H276c-1 227 88 385 302 388 146 2 246-65 283-166l158 45C954-65 807 20 578 20 240 20 87-193 87-548zm775-93c-19-206-90-328-294-328-185 0-285 140-290 328h584" id="aq"/><path d="M101-154v-153l858-367-858-366v-154l995 418v205" id="ar"/><g id="t"><use transform="matrix(0.0130224609375,0,0,0.0130224609375,0,0)" xlink:href="#ap"/><use transform="matrix(0.0130224609375,0,0,0.0130224609375,15.574863281250002,0)" xlink:href="#ap"/><use transform="matrix(0.0130224609375,0,0,0.0130224609375,31.149726562500003,0)" xlink:href="#y"/><use transform="matrix(0.0130224609375,0,0,0.0130224609375,44.4847265625,0)" xlink:href="#x"/><use transform="matrix(0.0130224609375,0,0,0.0130224609375,50.4099462890625,0)" xlink:href="#D"/><use transform="matrix(0.0130224609375,0,0,0.0130224609375,65.242529296875,0)" xlink:href="#H"/><use transform="matrix(0.0130224609375,0,0,0.0130224609375,80.07511230468751,0)" xlink:href="#B"/><use transform="matrix(0.0130224609375,0,0,0.0130224609375,86.00033203125001,0)" xlink:href="#aq"/><use transform="matrix(0.0130224609375,0,0,0.0130224609375,100.83291503906251,0)" xlink:href="#F"/><use transform="matrix(0.0130224609375,0,0,0.0130224609375,108.2426953125,0)" xlink:href="#G"/><use transform="matrix(0.0130224609375,0,0,0.0130224609375,123.07527832031253,0)" xlink:href="#D"/><use transform="matrix(0.0130224609375,0,0,0.0130224609375,137.90786132812502,0)" xlink:href="#ar"/><use transform="matrix(0.0130224609375,0,0,0.0130224609375,153.48272460937503,0)" xlink:href="#ar"/></g><g id="u"><use transform="matrix(0.009765625,0,0,0.009765625,0,0)" xlink:href="#P"/><use transform="matrix(0.009765625,0,0,0.009765625,11.123046875,0)" xlink:href="#Q"/><use transform="matrix(0.009765625,0,0,0.009765625,16.6796875,0)" xlink:href="#Q"/><use transform="matrix(0.009765625,0,0,0.009765625,22.236328125,0)" xlink:href="#D"/></g><path d="M101-251c68 0 85 55 85 127S166 4 100 4C33 4 14-52 14-124c0-73 17-127 87-127zm-1 229c47 0 54-49 54-102s-4-102-53-102c-51 0-55 48-55 102 0 53 5 102 54 102" id="as"/><path d="M33 0v-38h34V0H33" id="at"/><path d="M27 0v-27h64v-190l-56 39v-29l58-41h29v221h61V0H27" id="au"/><g id="v"><use transform="matrix(0.05,0,0,0.05,0,0)" xlink:href="#as"/><use transform="matrix(0.05,0,0,0.05,10,0)" xlink:href="#at"/><use transform="matrix(0.05,0,0,0.05,15,0)" xlink:href="#at"/><use transform="matrix(0.05,0,0,0.05,20,0)" xlink:href="#au"/></g></defs></g></svg>